<mxfile host="app.diagrams.net" modified="2024-05-27T09:37:13.489Z" agent="Mozilla/5.0 (Windows NT 10.0; Win64; x64; rv:126.0) Gecko/20100101 Firefox/126.0" etag="NJVt-aB5Wvq4FDDIHbzL" version="24.4.8" type="device">
  <diagram id="C5RBs43oDa-KdzZeNtuy" name="Page-1">
    <mxGraphModel dx="1434" dy="818" grid="1" gridSize="10" guides="1" tooltips="1" connect="1" arrows="1" fold="1" page="1" pageScale="1" pageWidth="827" pageHeight="1169" math="0" shadow="0">
      <root>
        <mxCell id="WIyWlLk6GJQsqaUBKTNV-0" />
        <mxCell id="WIyWlLk6GJQsqaUBKTNV-1" parent="WIyWlLk6GJQsqaUBKTNV-0" />
        <mxCell id="nY5QdWtAfCeqt1IPBH1M-5" value="&lt;div&gt;Tracker astronomical rotation angle &lt;span lang=&quot;fr&quot; class=&quot;BxUVEf ILfuVd&quot;&gt;&lt;span class=&quot;hgKElc&quot;&gt;β&lt;sub&gt;d&lt;/sub&gt;&lt;/span&gt;&lt;/span&gt;&lt;/div&gt;&lt;div&gt;AOI&lt;/div&gt;" style="rounded=0;whiteSpace=wrap;html=1;fillColor=#1ba1e2;fontColor=#ffffff;strokeColor=#000000;" parent="WIyWlLk6GJQsqaUBKTNV-1" vertex="1">
          <mxGeometry x="226.25" y="430" width="240" height="50" as="geometry" />
        </mxCell>
        <mxCell id="nY5QdWtAfCeqt1IPBH1M-7" value="&lt;div&gt;Tracker/axis azimuth &lt;span&gt;γ&lt;sub&gt;a&lt;/sub&gt;&lt;/span&gt;&lt;/div&gt;&lt;div&gt;Tracker/axis tilt&amp;nbsp;&lt;span lang=&quot;fr&quot; class=&quot;BxUVEf ILfuVd&quot;&gt;&lt;span class=&quot;hgKElc&quot;&gt;β&lt;/span&gt;&lt;/span&gt;&lt;span&gt;&lt;sub&gt;a&lt;/sub&gt;&lt;/span&gt;&lt;/div&gt;Maximum rotation angle &lt;span lang=&quot;fr&quot; class=&quot;BxUVEf ILfuVd&quot;&gt;&lt;span class=&quot;hgKElc&quot;&gt;β&lt;/span&gt;&lt;/span&gt;&lt;sub&gt;max&lt;/sub&gt;&lt;br&gt;GCR" style="rounded=1;whiteSpace=wrap;html=1;fontSize=12;glass=0;strokeWidth=1;shadow=0;fillColor=#60a917;fontColor=#ffffff;strokeColor=#2D7600;" parent="WIyWlLk6GJQsqaUBKTNV-1" vertex="1">
          <mxGeometry x="358" y="154" width="220" height="70" as="geometry" />
        </mxCell>
        <mxCell id="nY5QdWtAfCeqt1IPBH1M-9" value="" style="endArrow=classic;html=1;rounded=0;exitX=0.5;exitY=0.933;exitDx=0;exitDy=0;entryX=0.5;entryY=0;entryDx=0;entryDy=0;exitPerimeter=0;strokeWidth=2;" parent="WIyWlLk6GJQsqaUBKTNV-1" source="9z__vePkSirWir7pe276-2" target="9z__vePkSirWir7pe276-0" edge="1">
          <mxGeometry relative="1" as="geometry">
            <mxPoint x="220" y="110" as="sourcePoint" />
            <mxPoint x="220" y="160" as="targetPoint" />
          </mxGeometry>
        </mxCell>
        <mxCell id="nY5QdWtAfCeqt1IPBH1M-10" value="solarposition.get_solarposition" style="edgeLabel;resizable=0;html=1;align=center;verticalAlign=middle;" parent="nY5QdWtAfCeqt1IPBH1M-9" connectable="0" vertex="1">
          <mxGeometry relative="1" as="geometry" />
        </mxCell>
        <mxCell id="nY5QdWtAfCeqt1IPBH1M-25" style="edgeStyle=orthogonalEdgeStyle;rounded=0;orthogonalLoop=1;jettySize=auto;html=1;exitX=1;exitY=1;exitDx=0;exitDy=0;exitPerimeter=0;entryX=0.5;entryY=1;entryDx=0;entryDy=0;strokeWidth=2;endArrow=none;endFill=0;" parent="WIyWlLk6GJQsqaUBKTNV-1" source="nY5QdWtAfCeqt1IPBH1M-12" target="nY5QdWtAfCeqt1IPBH1M-7" edge="1">
          <mxGeometry relative="1" as="geometry">
            <Array as="points">
              <mxPoint x="468" y="220" />
            </Array>
          </mxGeometry>
        </mxCell>
        <mxCell id="nY5QdWtAfCeqt1IPBH1M-12" value="" style="strokeWidth=2;html=1;shape=mxgraph.flowchart.annotation_2;align=left;labelPosition=right;pointerEvents=1;rotation=-90;" parent="WIyWlLk6GJQsqaUBKTNV-1" vertex="1">
          <mxGeometry x="321.25" y="226.25" width="50" height="242.5" as="geometry" />
        </mxCell>
        <mxCell id="nY5QdWtAfCeqt1IPBH1M-17" value="" style="endArrow=classic;html=1;rounded=0;exitX=0;exitY=0.5;exitDx=0;exitDy=0;exitPerimeter=0;entryX=0.5;entryY=0;entryDx=0;entryDy=0;strokeWidth=2;" parent="WIyWlLk6GJQsqaUBKTNV-1" source="nY5QdWtAfCeqt1IPBH1M-12" target="nY5QdWtAfCeqt1IPBH1M-5" edge="1">
          <mxGeometry relative="1" as="geometry">
            <mxPoint x="170" y="400" as="sourcePoint" />
            <mxPoint x="270" y="400" as="targetPoint" />
          </mxGeometry>
        </mxCell>
        <mxCell id="nY5QdWtAfCeqt1IPBH1M-18" value="tracking.singleaxis" style="edgeLabel;resizable=0;html=1;align=center;verticalAlign=middle;" parent="nY5QdWtAfCeqt1IPBH1M-17" connectable="0" vertex="1">
          <mxGeometry relative="1" as="geometry" />
        </mxCell>
        <mxCell id="nY5QdWtAfCeqt1IPBH1M-23" style="edgeStyle=orthogonalEdgeStyle;rounded=0;orthogonalLoop=1;jettySize=auto;html=1;exitX=0.5;exitY=1;exitDx=0;exitDy=0;entryX=1;entryY=0;entryDx=0;entryDy=0;entryPerimeter=0;strokeWidth=2;endArrow=none;endFill=0;" parent="WIyWlLk6GJQsqaUBKTNV-1" target="nY5QdWtAfCeqt1IPBH1M-12" edge="1">
          <mxGeometry relative="1" as="geometry">
            <mxPoint x="201" y="208" as="sourcePoint" />
            <mxPoint x="198.5" y="322.5" as="targetPoint" />
          </mxGeometry>
        </mxCell>
        <mxCell id="9z__vePkSirWir7pe276-0" value="Solar zenith &lt;span lang=&quot;en&quot; class=&quot;BxUVEf ILfuVd&quot;&gt;&lt;span class=&quot;hgKElc&quot;&gt;θ&lt;sub&gt;z&lt;/sub&gt;&lt;/span&gt;&lt;/span&gt;&lt;br&gt;Solar azimuth &lt;span&gt;γ&lt;sub&gt;s&lt;/sub&gt;&lt;/span&gt;" style="rounded=0;whiteSpace=wrap;html=1;fillColor=#1ba1e2;fontColor=#ffffff;strokeColor=default;" vertex="1" parent="WIyWlLk6GJQsqaUBKTNV-1">
          <mxGeometry x="130" y="168" width="180" height="40" as="geometry" />
        </mxCell>
        <mxCell id="9z__vePkSirWir7pe276-2" value="Timeseries&lt;br&gt;&lt;div&gt;Longitude &lt;span&gt;λ&lt;/span&gt;&lt;/div&gt;&lt;div&gt;Latitude &lt;span lang=&quot;fr&quot; class=&quot;BxUVEf ILfuVd&quot;&gt;&lt;span class=&quot;hgKElc&quot;&gt;Φ&lt;/span&gt;&lt;/span&gt;&lt;/div&gt;&lt;div&gt;Altitude z&lt;br&gt;&lt;/div&gt;" style="rounded=1;whiteSpace=wrap;html=1;fontSize=12;glass=0;strokeWidth=1;shadow=0;fillColor=#60a917;fontColor=#ffffff;strokeColor=#2D7600;" vertex="1" parent="WIyWlLk6GJQsqaUBKTNV-1">
          <mxGeometry x="150" y="30" width="140" height="75" as="geometry" />
        </mxCell>
        <mxCell id="9z__vePkSirWir7pe276-3" value="Inputs" style="rounded=1;whiteSpace=wrap;html=1;fontSize=12;glass=0;strokeWidth=1;shadow=0;fillColor=#60a917;fontColor=#ffffff;strokeColor=#2D7600;" vertex="1" parent="WIyWlLk6GJQsqaUBKTNV-1">
          <mxGeometry x="30" y="420" width="100" height="25" as="geometry" />
        </mxCell>
        <mxCell id="9z__vePkSirWir7pe276-5" value="Outputs" style="rounded=0;whiteSpace=wrap;html=1;fillColor=#1ba1e2;fontColor=#ffffff;strokeColor=default;" vertex="1" parent="WIyWlLk6GJQsqaUBKTNV-1">
          <mxGeometry x="30" y="460" width="100" height="20" as="geometry" />
        </mxCell>
      </root>
    </mxGraphModel>
  </diagram>
</mxfile>
